<svg width="785" height="77" viewBox="0 0 785 77" fill="none" xmlns="http://www.w3.org/2000/svg">
<path d="M658.105 57.0762H760.822" stroke="#FFF9F9" stroke-width="2"/>
<path d="M45.3222 35.61C42.9861 39.8402 39.8208 44.0544 36.5841 47.8385C33.5137 51.4059 30.2307 54.8232 26.7493 58.0754C23.2678 54.8232 19.9848 51.406 16.9145 47.8385C13.6778 44.0544 10.5125 39.8402 8.17637 35.61C5.81351 31.336 4.45822 27.3329 4.45822 23.8993C4.45822 18.6173 6.80673 13.5515 10.9871 9.81652C15.1675 6.08152 20.8373 3.98322 26.7493 3.98322C32.6613 3.98322 38.3311 6.08152 42.5115 9.81652C46.6919 13.5515 49.0404 18.6173 49.0404 23.8993C49.0404 27.3329 47.6806 31.336 45.3222 35.61ZM26.7493 63.7316C26.7493 63.7316 53.4986 41.083 53.4986 23.8993C53.4986 17.5608 50.6804 11.4819 45.6639 6.99995C40.6474 2.51796 33.8436 0 26.7493 0C19.6549 0 12.8512 2.51796 7.83469 6.99995C2.81822 11.4819 1.05714e-07 17.5608 0 23.8993C0 41.083 26.7493 63.7316 26.7493 63.7316Z" fill="#FFFCFC"/>
<path d="M26.7488 32.0303C24.4786 32.0303 22.3014 31.226 20.6962 29.7942C19.0909 28.3625 18.1891 26.4207 18.1891 24.3959C18.1891 22.3712 19.0909 20.4293 20.6962 18.9976C22.3014 17.5659 24.4786 16.7615 26.7488 16.7615C29.019 16.7615 31.1962 17.5659 32.8015 18.9976C34.4068 20.4293 35.3086 22.3712 35.3086 24.3959C35.3086 26.4207 34.4068 28.3625 32.8015 29.7942C31.1962 31.226 29.019 32.0303 26.7488 32.0303ZM26.7488 35.8475C26.7488 35.8475 33.4199 34.641 35.8279 32.4934C38.2358 30.3458 39.5885 27.4331 39.5885 24.3959C39.5885 21.3588 38.2358 18.446 35.8279 16.2984C33.4199 14.1508 30.1541 12.9443 26.7488 12.9443C23.3435 12.9443 20.0777 14.1508 17.6698 16.2984C15.2619 18.446 13.9092 21.3588 13.9092 24.3959C13.9092 27.4331 15.2619 30.3458 17.6698 32.4934C20.0777 34.641 23.3435 35.8475 26.7488 35.8475Z" fill="#FFFCFC"/>
<path d="M636.809 36.4752C634.473 40.7054 631.308 44.9197 628.071 48.7037C625.001 52.2712 621.718 55.6884 618.236 58.9406C614.755 55.6885 611.472 52.2712 608.401 48.7037C605.165 44.9197 601.999 40.7054 599.663 36.4752C597.3 32.2012 595.945 28.1981 595.945 24.7646C595.945 19.4825 598.294 14.4167 602.474 10.6818C606.654 6.94676 612.324 4.84846 618.236 4.84846C624.148 4.84846 629.818 6.94676 633.998 10.6818C638.179 14.4167 640.527 19.4825 640.527 24.7646C640.527 28.1981 639.167 32.2012 636.809 36.4752ZM618.236 64.5968C618.236 64.5968 644.985 41.9482 644.985 24.7646C644.985 18.4261 642.167 12.3472 637.151 7.86519C632.134 3.38319 625.33 0.865234 618.236 0.865234C611.142 0.865234 604.338 3.38319 599.322 7.86519C594.305 12.3472 591.487 18.4261 591.487 24.7646C591.487 41.9482 618.236 64.5968 618.236 64.5968Z" fill="#FFFCFC"/>
<path d="M618.237 32.8926C615.966 32.8926 613.789 32.0883 612.184 30.6566C610.579 29.2248 609.677 27.283 609.677 25.2582C609.677 23.2335 610.579 21.2916 612.184 19.8599C613.789 18.4282 615.966 17.6238 618.237 17.6238C620.507 17.6238 622.684 18.4282 624.289 19.8599C625.895 21.2916 626.796 23.2335 626.796 25.2582C626.796 27.283 625.895 29.2248 624.289 30.6566C622.684 32.0883 620.507 32.8926 618.237 32.8926ZM618.237 36.7098C618.237 36.7098 624.908 35.5033 627.316 33.3557C629.724 31.2081 631.076 28.2954 631.076 25.2582C631.076 22.2211 629.724 19.3083 627.316 17.1607C624.908 15.0131 621.642 13.8066 618.237 13.8066C614.831 13.8066 611.566 15.0131 609.158 17.1607C606.75 19.3083 605.397 22.2211 605.397 25.2582C605.397 28.2954 606.75 31.2081 609.158 33.3557C611.566 35.5033 614.831 36.7098 618.237 36.7098Z" fill="#FFFCFC"/>
<path d="M76.7682 45.4996H72.1282V54.8086H70.0402V34.5086H72.1282V43.6146H76.7682L83.6412 34.5086H85.9612L78.4212 44.3686L86.3962 54.8086H83.9312L76.7682 45.4996ZM102.833 39.5546V52.9526C102.833 55.5433 102.243 57.4573 101.064 58.6946C99.8845 59.9513 98.1058 60.5796 95.7278 60.5796C94.3938 60.5796 93.1275 60.3669 91.9288 59.9416C90.7495 59.5356 89.7925 58.9653 89.0578 58.2306L90.1018 56.6646C90.7592 57.3219 91.5712 57.8343 92.5378 58.2016C93.5045 58.5689 94.5388 58.7526 95.6408 58.7526C97.4002 58.7526 98.6955 58.2983 99.5268 57.3896C100.358 56.5003 100.774 55.1083 100.774 53.2136V51.4446C100.232 52.3339 99.4882 53.0203 98.5408 53.5036C97.6128 53.9869 96.5592 54.2286 95.3798 54.2286C93.3885 54.2286 91.8128 53.6776 90.6528 52.5756C89.5122 51.4543 88.9418 49.8206 88.9418 47.6746V39.5546H91.0008V47.4716C91.0008 49.0763 91.3972 50.2943 92.1898 51.1256C92.9825 51.9569 94.1135 52.3726 95.5828 52.3726C97.1875 52.3726 98.4538 51.8893 99.3818 50.9226C100.31 49.9366 100.774 48.5736 100.774 46.8336V39.5546H102.833ZM121.128 39.5546V54.8086H119.069V41.3816H111.761L111.558 45.1516C111.403 48.3223 111.036 50.7583 110.456 52.4596C109.876 54.1609 108.841 55.0116 107.353 55.0116C106.947 55.0116 106.454 54.9343 105.874 54.7796L106.019 53.0106C106.367 53.0879 106.608 53.1266 106.744 53.1266C107.536 53.1266 108.136 52.7593 108.542 52.0246C108.948 51.2899 109.218 50.3813 109.354 49.2986C109.489 48.2159 109.605 46.7853 109.702 45.0066L109.963 39.5546H121.128ZM146.005 39.4386C147.919 39.4386 149.417 39.9896 150.5 41.0916C151.602 42.1936 152.153 43.8176 152.153 45.9636V54.8086H150.094V46.1666C150.094 44.5813 149.707 43.3729 148.934 42.5416C148.18 41.7103 147.107 41.2946 145.715 41.2946C144.129 41.2946 142.882 41.7876 141.974 42.7736C141.065 43.7403 140.611 45.0839 140.611 46.8046V54.8086H138.552V46.1666C138.552 44.5813 138.165 43.3729 137.392 42.5416C136.638 41.7103 135.555 41.2946 134.144 41.2946C132.578 41.2946 131.331 41.7876 130.403 42.7736C129.494 43.7403 129.04 45.0839 129.04 46.8046V54.8086H126.981V39.5546H128.953V42.3386C129.494 41.4106 130.248 40.6953 131.215 40.1926C132.181 39.6899 133.293 39.4386 134.55 39.4386C135.826 39.4386 136.928 39.7093 137.856 40.2506C138.803 40.7919 139.509 41.5943 139.973 42.6576C140.533 41.6523 141.336 40.8693 142.38 40.3086C143.443 39.7286 144.651 39.4386 146.005 39.4386ZM171.4 39.5546V54.8086H169.428V51.7926C168.81 52.8173 167.988 53.6003 166.963 54.1416C165.958 54.6829 164.817 54.9536 163.541 54.9536C162.111 54.9536 160.815 54.6249 159.655 53.9676C158.495 53.3103 157.587 52.3919 156.929 51.2126C156.272 50.0333 155.943 48.6896 155.943 47.1816C155.943 45.6736 156.272 44.3299 156.929 43.1506C157.587 41.9713 158.495 41.0626 159.655 40.4246C160.815 39.7673 162.111 39.4386 163.541 39.4386C164.779 39.4386 165.89 39.6996 166.876 40.2216C167.882 40.7243 168.703 41.4686 169.341 42.4546V39.5546H171.4ZM163.715 53.1266C164.779 53.1266 165.736 52.8849 166.586 52.4016C167.456 51.8989 168.133 51.1933 168.616 50.2846C169.119 49.3759 169.37 48.3416 169.37 47.1816C169.37 46.0216 169.119 44.9873 168.616 44.0786C168.133 43.1699 167.456 42.4739 166.586 41.9906C165.736 41.4879 164.779 41.2366 163.715 41.2366C162.633 41.2366 161.656 41.4879 160.786 41.9906C159.936 42.4739 159.259 43.1699 158.756 44.0786C158.273 44.9873 158.031 46.0216 158.031 47.1816C158.031 48.3416 158.273 49.3759 158.756 50.2846C159.259 51.1933 159.936 51.8989 160.786 52.4016C161.656 52.8849 162.633 53.1266 163.715 53.1266ZM183.66 53.1266C184.607 53.1266 185.477 52.9623 186.27 52.6336C187.082 52.2856 187.768 51.7829 188.329 51.1256L189.489 52.4596C188.812 53.2716 187.971 53.8903 186.966 54.3156C185.96 54.7409 184.849 54.9536 183.631 54.9536C182.065 54.9536 180.673 54.6249 179.455 53.9676C178.237 53.2909 177.289 52.3629 176.613 51.1836C175.936 50.0043 175.598 48.6703 175.598 47.1816C175.598 45.6929 175.917 44.3589 176.555 43.1796C177.212 42.0003 178.111 41.0819 179.252 40.4246C180.392 39.7673 181.688 39.4386 183.138 39.4386C184.491 39.4386 185.709 39.7479 186.792 40.3666C187.894 40.9853 188.764 41.8456 189.402 42.9476C190.059 44.0496 190.407 45.3063 190.446 46.7176L177.918 49.1536C178.304 50.3909 179 51.3673 180.006 52.0826C181.03 52.7786 182.248 53.1266 183.66 53.1266ZM183.138 41.2076C182.074 41.2076 181.117 41.4589 180.267 41.9616C179.435 42.4449 178.778 43.1313 178.295 44.0206C177.831 44.8906 177.599 45.8959 177.599 47.0366C177.599 47.3266 177.608 47.5393 177.628 47.6746L188.387 45.5866C188.155 44.3106 187.565 43.2666 186.618 42.4546C185.67 41.6233 184.51 41.2076 183.138 41.2076ZM204.41 46.9206C206.478 47.4039 207.513 48.6509 207.513 50.6616C207.513 51.9956 207.02 53.0203 206.034 53.7356C205.048 54.4509 203.578 54.8086 201.626 54.8086H194.695V39.5546H201.423C203.163 39.5546 204.526 39.8929 205.512 40.5696C206.498 41.2463 206.991 42.2129 206.991 43.4696C206.991 44.3009 206.759 45.0163 206.295 45.6156C205.85 46.1956 205.222 46.6306 204.41 46.9206ZM196.696 46.3406H201.278C202.457 46.3406 203.356 46.1183 203.975 45.6736C204.613 45.2289 204.932 44.5813 204.932 43.7306C204.932 42.8799 204.613 42.2419 203.975 41.8166C203.356 41.3913 202.457 41.1786 201.278 41.1786H196.696V46.3406ZM201.539 53.1846C202.853 53.1846 203.839 52.9719 204.497 52.5466C205.154 52.1213 205.483 51.4543 205.483 50.5456C205.483 49.6369 205.183 48.9699 204.584 48.5446C203.984 48.0999 203.037 47.8776 201.742 47.8776H196.696V53.1846H201.539ZM218.631 54.9536C217.162 54.9536 215.838 54.6249 214.658 53.9676C213.479 53.2909 212.551 52.3629 211.874 51.1836C211.198 50.0043 210.859 48.6703 210.859 47.1816C210.859 45.6929 211.198 44.3589 211.874 43.1796C212.551 42.0003 213.479 41.0819 214.658 40.4246C215.838 39.7673 217.162 39.4386 218.631 39.4386C220.101 39.4386 221.425 39.7673 222.604 40.4246C223.784 41.0819 224.702 42.0003 225.359 43.1796C226.036 44.3589 226.374 45.6929 226.374 47.1816C226.374 48.6703 226.036 50.0043 225.359 51.1836C224.702 52.3629 223.784 53.2909 222.604 53.9676C221.425 54.6249 220.101 54.9536 218.631 54.9536ZM218.631 53.1266C219.714 53.1266 220.681 52.8849 221.531 52.4016C222.401 51.8989 223.078 51.1933 223.561 50.2846C224.045 49.3759 224.286 48.3416 224.286 47.1816C224.286 46.0216 224.045 44.9873 223.561 44.0786C223.078 43.1699 222.401 42.4739 221.531 41.9906C220.681 41.4879 219.714 41.2366 218.631 41.2366C217.549 41.2366 216.572 41.4879 215.702 41.9906C214.852 42.4739 214.175 43.1699 213.672 44.0786C213.189 44.9873 212.947 46.0216 212.947 47.1816C212.947 48.3416 213.189 49.3759 213.672 50.2846C214.175 51.1933 214.852 51.8989 215.702 52.4016C216.572 52.8849 217.549 53.1266 218.631 53.1266Z" fill="white"/>
<path d="M68.6367 57.0762H195.816" stroke="#FFF9F9" stroke-width="2"/>
<path d="M341.064 35.6557C338.728 39.7885 335.563 43.9058 332.326 47.6027C329.256 51.0881 325.973 54.4267 322.492 57.604C319.01 54.4267 315.728 51.0881 312.657 47.6027C309.421 43.9058 306.256 39.7885 303.92 35.6557C301.557 31.48 300.202 27.569 300.202 24.2145C300.202 19.054 302.55 14.1049 306.73 10.4558C310.911 6.80679 316.58 4.75678 322.492 4.75678C328.403 4.75678 334.073 6.80679 338.253 10.4558C342.433 14.1049 344.782 19.054 344.782 24.2145C344.782 27.569 343.422 31.48 341.064 35.6557ZM322.492 63.13C322.492 63.13 349.24 41.0027 349.24 24.2145C349.24 18.0219 346.422 12.0829 341.406 7.70408C336.389 3.32524 329.586 0.865234 322.492 0.865234C315.398 0.865234 308.594 3.32524 303.578 7.70408C298.562 12.0829 295.744 18.0219 295.744 24.2145C295.744 41.0027 322.492 63.13 322.492 63.13Z" fill="#FFFCFC"/>
<path d="M322.492 31.8533C320.261 31.8533 318.121 31.0941 316.544 29.7426C314.966 28.3911 314.08 26.5581 314.08 24.6468C314.08 22.7355 314.966 20.9024 316.544 19.551C318.121 18.1995 320.261 17.4402 322.492 17.4402C324.722 17.4402 326.862 18.1995 328.439 19.551C330.017 20.9024 330.903 22.7355 330.903 24.6468C330.903 26.5581 330.017 28.3911 328.439 29.7426C326.862 31.0941 324.722 31.8533 322.492 31.8533ZM322.492 35.4566C322.492 35.4566 329.047 34.3177 331.413 32.2905C333.779 30.2633 335.109 27.5137 335.109 24.6468C335.109 21.7798 333.779 19.0303 331.413 17.003C329.047 14.9758 325.838 13.8369 322.492 13.8369C319.145 13.8369 315.936 14.9758 313.57 17.003C311.204 19.0303 309.875 21.7798 309.875 24.6468C309.875 27.5137 311.204 30.2633 313.57 32.2905C315.936 34.3177 319.145 35.4566 322.492 35.4566Z" fill="#FFFCFC"/>
<path d="M374.135 33.4694C376.668 33.4694 378.669 34.2234 380.138 35.7314C381.608 37.2394 382.342 39.395 382.342 42.1984V53.9434H380.196V41.9954C380.196 39.8107 379.665 38.1674 378.601 37.0654C377.538 35.944 376.049 35.3834 374.135 35.3834C372.202 35.3834 370.694 35.944 369.611 37.0654C368.548 38.1674 368.016 39.8107 368.016 41.9954V53.9434H363.434V52.0874H365.87V42.1984C365.87 39.395 366.615 37.2394 368.103 35.7314C369.592 34.2234 371.603 33.4694 374.135 33.4694ZM394.438 54.0884C392.968 54.0884 391.644 53.7597 390.465 53.1024C389.285 52.4257 388.357 51.4977 387.681 50.3184C387.004 49.139 386.666 47.805 386.666 46.3164C386.666 44.8277 387.004 43.4937 387.681 42.3144C388.357 41.135 389.285 40.2167 390.465 39.5594C391.644 38.902 392.968 38.5734 394.438 38.5734C395.907 38.5734 397.231 38.902 398.411 39.5594C399.59 40.2167 400.508 41.135 401.166 42.3144C401.842 43.4937 402.181 44.8277 402.181 46.3164C402.181 47.805 401.842 49.139 401.166 50.3184C400.508 51.4977 399.59 52.4257 398.411 53.1024C397.231 53.7597 395.907 54.0884 394.438 54.0884ZM394.438 52.2614C395.52 52.2614 396.487 52.0197 397.338 51.5364C398.208 51.0337 398.884 50.328 399.368 49.4194C399.851 48.5107 400.093 47.4764 400.093 46.3164C400.093 45.1564 399.851 44.122 399.368 43.2134C398.884 42.3047 398.208 41.6087 397.338 41.1254C396.487 40.6227 395.52 40.3714 394.438 40.3714C393.355 40.3714 392.379 40.6227 391.509 41.1254C390.658 41.6087 389.981 42.3047 389.479 43.2134C388.995 44.122 388.754 45.1564 388.754 46.3164C388.754 47.4764 388.995 48.5107 389.479 49.4194C389.981 50.328 390.658 51.0337 391.509 51.5364C392.379 52.0197 393.355 52.2614 394.438 52.2614ZM413.976 39.0664C415.388 39.0664 416.644 39.3854 417.746 40.0234C418.868 40.642 419.738 41.5217 420.356 42.6624C420.975 43.7837 421.284 45.0694 421.284 46.5194C421.284 48.008 420.956 49.3324 420.298 50.4924C419.66 51.633 418.761 52.5224 417.601 53.1604C416.441 53.7984 415.107 54.1174 413.599 54.1174C411.067 54.1174 409.104 53.228 407.712 51.4494C406.32 49.6707 405.624 47.2154 405.624 44.0834C405.624 40.816 406.243 38.3124 407.48 36.5724C408.737 34.8324 410.69 33.653 413.338 33.0344L420.182 31.4684L420.53 33.3534L414.092 34.8324C411.908 35.3157 410.303 36.176 409.278 37.4134C408.254 38.6314 407.693 40.439 407.596 42.8364C408.215 41.657 409.075 40.7387 410.177 40.0814C411.279 39.4047 412.546 39.0664 413.976 39.0664ZM413.657 52.4064C414.721 52.4064 415.668 52.1647 416.499 51.6814C417.35 51.1787 418.007 50.4827 418.471 49.5934C418.955 48.704 419.196 47.6987 419.196 46.5774C419.196 45.456 418.964 44.47 418.5 43.6194C418.036 42.7687 417.379 42.1114 416.528 41.6474C415.697 41.164 414.74 40.9224 413.657 40.9224C412.575 40.9224 411.608 41.164 410.757 41.6474C409.926 42.1114 409.269 42.7687 408.785 43.6194C408.321 44.47 408.089 45.456 408.089 46.5774C408.089 47.6987 408.321 48.704 408.785 49.5934C409.269 50.4827 409.936 51.1787 410.786 51.6814C411.637 52.1647 412.594 52.4064 413.657 52.4064ZM439.56 38.6894V53.9434H437.588V50.9274C436.969 51.952 436.147 52.735 435.123 53.2764C434.117 53.8177 432.977 54.0884 431.701 54.0884C430.27 54.0884 428.975 53.7597 427.815 53.1024C426.655 52.445 425.746 51.5267 425.089 50.3474C424.431 49.168 424.103 47.8244 424.103 46.3164C424.103 44.8084 424.431 43.4647 425.089 42.2854C425.746 41.106 426.655 40.1974 427.815 39.5594C428.975 38.902 430.27 38.5734 431.701 38.5734C432.938 38.5734 434.05 38.8344 435.036 39.3564C436.041 39.859 436.863 40.6034 437.501 41.5894V38.6894H439.56ZM431.875 52.2614C432.938 52.2614 433.895 52.0197 434.746 51.5364C435.616 51.0337 436.292 50.328 436.776 49.4194C437.278 48.5107 437.53 47.4764 437.53 46.3164C437.53 45.1564 437.278 44.122 436.776 43.2134C436.292 42.3047 435.616 41.6087 434.746 41.1254C433.895 40.6227 432.938 40.3714 431.875 40.3714C430.792 40.3714 429.816 40.6227 428.946 41.1254C428.095 41.6087 427.418 42.3047 426.916 43.2134C426.432 44.122 426.191 45.1564 426.191 46.3164C426.191 47.4764 426.432 48.5107 426.916 49.4194C427.418 50.328 428.095 51.0337 428.946 51.5364C429.816 52.0197 430.792 52.2614 431.875 52.2614ZM445.352 38.6894H447.411V45.4464H457.01V38.6894H459.069V53.9434H457.01V47.2154H447.411V53.9434H445.352V38.6894ZM471.214 54.0884C469.745 54.0884 468.421 53.7597 467.241 53.1024C466.062 52.4257 465.134 51.4977 464.457 50.3184C463.781 49.139 463.442 47.805 463.442 46.3164C463.442 44.8277 463.781 43.4937 464.457 42.3144C465.134 41.135 466.062 40.2167 467.241 39.5594C468.421 38.902 469.745 38.5734 471.214 38.5734C472.684 38.5734 474.008 38.902 475.187 39.5594C476.367 40.2167 477.285 41.135 477.942 42.3144C478.619 43.4937 478.957 44.8277 478.957 46.3164C478.957 47.805 478.619 49.139 477.942 50.3184C477.285 51.4977 476.367 52.4257 475.187 53.1024C474.008 53.7597 472.684 54.0884 471.214 54.0884ZM471.214 52.2614C472.297 52.2614 473.264 52.0197 474.114 51.5364C474.984 51.0337 475.661 50.328 476.144 49.4194C476.628 48.5107 476.869 47.4764 476.869 46.3164C476.869 45.1564 476.628 44.122 476.144 43.2134C475.661 42.3047 474.984 41.6087 474.114 41.1254C473.264 40.6227 472.297 40.3714 471.214 40.3714C470.132 40.3714 469.155 40.6227 468.285 41.1254C467.435 41.6087 466.758 42.3047 466.255 43.2134C465.772 44.122 465.53 45.1564 465.53 46.3164C465.53 47.4764 465.772 48.5107 466.255 49.4194C466.758 50.328 467.435 51.0337 468.285 51.5364C469.155 52.0197 470.132 52.2614 471.214 52.2614ZM493.073 46.0554C495.141 46.5387 496.176 47.7857 496.176 49.7964C496.176 51.1304 495.683 52.155 494.697 52.8704C493.711 53.5857 492.241 53.9434 490.289 53.9434H483.358V38.6894H490.086C491.826 38.6894 493.189 39.0277 494.175 39.7044C495.161 40.381 495.654 41.3477 495.654 42.6044C495.654 43.4357 495.422 44.151 494.958 44.7504C494.513 45.3304 493.885 45.7654 493.073 46.0554ZM485.359 45.4754H489.941C491.12 45.4754 492.019 45.253 492.638 44.8084C493.276 44.3637 493.595 43.716 493.595 42.8654C493.595 42.0147 493.276 41.3767 492.638 40.9514C492.019 40.526 491.12 40.3134 489.941 40.3134H485.359V45.4754ZM490.202 52.3194C491.516 52.3194 492.502 52.1067 493.16 51.6814C493.817 51.256 494.146 50.589 494.146 49.6804C494.146 48.7717 493.846 48.1047 493.247 47.6794C492.647 47.2347 491.7 47.0124 490.405 47.0124H485.359V52.3194H490.202ZM507.294 54.0884C505.825 54.0884 504.501 53.7597 503.321 53.1024C502.142 52.4257 501.214 51.4977 500.537 50.3184C499.861 49.139 499.522 47.805 499.522 46.3164C499.522 44.8277 499.861 43.4937 500.537 42.3144C501.214 41.135 502.142 40.2167 503.321 39.5594C504.501 38.902 505.825 38.5734 507.294 38.5734C508.764 38.5734 510.088 38.902 511.267 39.5594C512.447 40.2167 513.365 41.135 514.022 42.3144C514.699 43.4937 515.037 44.8277 515.037 46.3164C515.037 47.805 514.699 49.139 514.022 50.3184C513.365 51.4977 512.447 52.4257 511.267 53.1024C510.088 53.7597 508.764 54.0884 507.294 54.0884ZM507.294 52.2614C508.377 52.2614 509.344 52.0197 510.194 51.5364C511.064 51.0337 511.741 50.328 512.224 49.4194C512.708 48.5107 512.949 47.4764 512.949 46.3164C512.949 45.1564 512.708 44.122 512.224 43.2134C511.741 42.3047 511.064 41.6087 510.194 41.1254C509.344 40.6227 508.377 40.3714 507.294 40.3714C506.212 40.3714 505.235 40.6227 504.365 41.1254C503.515 41.6087 502.838 42.3047 502.335 43.2134C501.852 44.122 501.61 45.1564 501.61 46.3164C501.61 47.4764 501.852 48.5107 502.335 49.4194C502.838 50.328 503.515 51.0337 504.365 51.5364C505.235 52.0197 506.212 52.2614 507.294 52.2614Z" fill="white"/>
<path d="M362.361 56.2109H491.828" stroke="#FFF9F9" stroke-width="2"/>
<path d="M677.923 44.691H673.718V54H671.63V44.691H667.396L661.19 54H658.696L665.656 43.531L659.218 33.7H661.538L667.367 42.806H671.63V33.7H673.718V42.806H677.923L683.781 33.7H686.101L679.663 43.531L686.623 54H684.129L677.923 44.691ZM695.83 52.318C696.777 52.318 697.647 52.1537 698.44 51.825C699.252 51.477 699.938 50.9743 700.499 50.317L701.659 51.651C700.982 52.463 700.141 53.0817 699.136 53.507C698.13 53.9323 697.019 54.145 695.801 54.145C694.235 54.145 692.843 53.8163 691.625 53.159C690.407 52.4823 689.459 51.5543 688.783 50.375C688.106 49.1957 687.768 47.8617 687.768 46.373C687.768 44.8843 688.087 43.5503 688.725 42.371C689.382 41.1917 690.281 40.2733 691.422 39.616C692.562 38.9587 693.858 38.63 695.308 38.63C696.661 38.63 697.879 38.9393 698.962 39.558C700.064 40.1767 700.934 41.037 701.572 42.139C702.229 43.241 702.577 44.4977 702.616 45.909L690.088 48.345C690.474 49.5823 691.17 50.5587 692.176 51.274C693.2 51.97 694.418 52.318 695.83 52.318ZM695.308 40.399C694.244 40.399 693.287 40.6503 692.437 41.153C691.605 41.6363 690.948 42.3227 690.465 43.212C690.001 44.082 689.769 45.0873 689.769 46.228C689.769 46.518 689.778 46.7307 689.798 46.866L700.557 44.778C700.325 43.502 699.735 42.458 698.788 41.646C697.84 40.8147 696.68 40.399 695.308 40.399ZM714.26 39.123C715.671 39.123 716.928 39.442 718.03 40.08C719.151 40.6987 720.021 41.5783 720.64 42.719C721.258 43.8403 721.568 45.126 721.568 46.576C721.568 48.0647 721.239 49.389 720.582 50.549C719.944 51.6897 719.045 52.579 717.885 53.217C716.725 53.855 715.391 54.174 713.883 54.174C711.35 54.174 709.388 53.2847 707.996 51.506C706.604 49.7273 705.908 47.272 705.908 44.14C705.908 40.8727 706.526 38.369 707.764 36.629C709.02 34.889 710.973 33.7097 713.622 33.091L720.466 31.525L720.814 33.41L714.376 34.889C712.191 35.3723 710.586 36.2327 709.562 37.47C708.537 38.688 707.976 40.4957 707.88 42.893C708.498 41.7137 709.359 40.7953 710.461 40.138C711.563 39.4613 712.829 39.123 714.26 39.123ZM713.941 52.463C715.004 52.463 715.951 52.2213 716.783 51.738C717.633 51.2353 718.291 50.5393 718.755 49.65C719.238 48.7607 719.48 47.7553 719.48 46.634C719.48 45.5127 719.248 44.5267 718.784 43.676C718.32 42.8253 717.662 42.168 716.812 41.704C715.98 41.2207 715.023 40.979 713.941 40.979C712.858 40.979 711.891 41.2207 711.041 41.704C710.209 42.168 709.552 42.8253 709.069 43.676C708.605 44.5267 708.373 45.5127 708.373 46.634C708.373 47.7553 708.605 48.7607 709.069 49.65C709.552 50.5393 710.219 51.2353 711.07 51.738C711.92 52.2213 712.877 52.463 713.941 52.463ZM732.999 38.63C734.487 38.63 735.812 38.9587 736.972 39.616C738.132 40.2733 739.031 41.1917 739.669 42.371C740.326 43.5503 740.655 44.894 740.655 46.402C740.655 47.91 740.336 49.2537 739.698 50.433C739.06 51.593 738.17 52.5017 737.03 53.159C735.908 53.8163 734.623 54.145 733.173 54.145C731.897 54.145 730.756 53.8937 729.751 53.391C728.765 52.869 727.962 52.1247 727.344 51.158V59.626H725.285V46.431C725.285 44.9037 725.604 43.5503 726.242 42.371C726.899 41.1917 727.808 40.2733 728.968 39.616C730.147 38.9587 731.491 38.63 732.999 38.63ZM732.941 52.347C734.023 52.347 735 52.0957 735.87 51.593C736.74 51.0903 737.416 50.3847 737.9 49.476C738.383 48.5673 738.625 47.5427 738.625 46.402C738.625 45.2613 738.383 44.2367 737.9 43.328C737.416 42.4193 736.74 41.7137 735.87 41.211C735 40.689 734.023 40.428 732.941 40.428C731.858 40.428 730.882 40.6793 730.012 41.182C729.161 41.6847 728.494 42.3903 728.011 43.299C727.547 44.1883 727.315 45.213 727.315 46.373C727.315 47.533 727.547 48.5673 728.011 49.476C728.494 50.3847 729.161 51.0903 730.012 51.593C730.882 52.0957 731.858 52.347 732.941 52.347ZM751.564 52.318C752.511 52.318 753.381 52.1537 754.174 51.825C754.986 51.477 755.672 50.9743 756.233 50.317L757.393 51.651C756.716 52.463 755.875 53.0817 754.87 53.507C753.865 53.9323 752.753 54.145 751.535 54.145C749.969 54.145 748.577 53.8163 747.359 53.159C746.141 52.4823 745.194 51.5543 744.517 50.375C743.84 49.1957 743.502 47.8617 743.502 46.373C743.502 44.8843 743.821 43.5503 744.459 42.371C745.116 41.1917 746.015 40.2733 747.156 39.616C748.297 38.9587 749.592 38.63 751.042 38.63C752.395 38.63 753.613 38.9393 754.696 39.558C755.798 40.1767 756.668 41.037 757.306 42.139C757.963 43.241 758.311 44.4977 758.35 45.909L745.822 48.345C746.209 49.5823 746.905 50.5587 747.91 51.274C748.935 51.97 750.153 52.318 751.564 52.318ZM751.042 40.399C749.979 40.399 749.022 40.6503 748.171 41.153C747.34 41.6363 746.682 42.3227 746.199 43.212C745.735 44.082 745.503 45.0873 745.503 46.228C745.503 46.518 745.513 46.7307 745.532 46.866L756.291 44.778C756.059 43.502 755.469 42.458 754.522 41.646C753.575 40.8147 752.415 40.399 751.042 40.399ZM776.026 38.746V54H774.054V51.216C773.513 52.144 772.768 52.869 771.821 53.391C770.874 53.8937 769.791 54.145 768.573 54.145C766.562 54.145 764.977 53.594 763.817 52.492C762.676 51.3707 762.106 49.737 762.106 47.591V38.746H764.165V47.388C764.165 48.9927 764.561 50.2107 765.354 51.042C766.147 51.8733 767.287 52.289 768.776 52.289C770.381 52.289 771.647 51.8057 772.575 50.839C773.503 49.853 773.967 48.49 773.967 46.75V38.746H776.026Z" fill="white"/>
<g filter="url(#filter0_d_18_48)">
<path d="M27.2441 67H768.134" stroke="white" stroke-width="3" stroke-dasharray="24 24"/>
</g>
<defs>
<filter id="filter0_d_18_48" x="23.2441" y="65.5" width="748.89" height="11" filterUnits="userSpaceOnUse" color-interpolation-filters="sRGB">
<feFlood flood-opacity="0" result="BackgroundImageFix"/>
<feColorMatrix in="SourceAlpha" type="matrix" values="0 0 0 0 0 0 0 0 0 0 0 0 0 0 0 0 0 0 127 0" result="hardAlpha"/>
<feOffset dy="4"/>
<feGaussianBlur stdDeviation="2"/>
<feComposite in2="hardAlpha" operator="out"/>
<feColorMatrix type="matrix" values="0 0 0 0 0 0 0 0 0 0 0 0 0 0 0 0 0 0 0.25 0"/>
<feBlend mode="normal" in2="BackgroundImageFix" result="effect1_dropShadow_18_48"/>
<feBlend mode="normal" in="SourceGraphic" in2="effect1_dropShadow_18_48" result="shape"/>
</filter>
</defs>
</svg>
