<svg width="782" height="77" viewBox="0 0 782 77" fill="none" xmlns="http://www.w3.org/2000/svg">
<path d="M658.105 57.0762H760.822" stroke="#FFF9F9" stroke-width="2"/>
<path d="M45.3222 35.61C42.9861 39.8402 39.8208 44.0544 36.5841 47.8385C33.5137 51.4059 30.2307 54.8232 26.7493 58.0754C23.2678 54.8232 19.9848 51.406 16.9145 47.8385C13.6778 44.0544 10.5125 39.8402 8.17637 35.61C5.81351 31.336 4.45822 27.3329 4.45822 23.8993C4.45822 18.6173 6.80673 13.5515 10.9871 9.81652C15.1675 6.08152 20.8373 3.98322 26.7493 3.98322C32.6613 3.98322 38.3311 6.08152 42.5115 9.81652C46.6918 13.5515 49.0404 18.6173 49.0404 23.8993C49.0404 27.3329 47.6806 31.336 45.3222 35.61ZM26.7493 63.7316C26.7493 63.7316 53.4986 41.083 53.4986 23.8993C53.4986 17.5608 50.6804 11.4819 45.6639 6.99995C40.6474 2.51796 33.8436 0 26.7493 0C19.6549 0 12.8512 2.51796 7.83469 6.99995C2.81822 11.4819 1.05714e-07 17.5608 0 23.8993C0 41.083 26.7493 63.7316 26.7493 63.7316Z" fill="#FFFCFC"/>
<path d="M26.7488 32.0303C24.4786 32.0303 22.3014 31.226 20.6962 29.7942C19.0909 28.3625 18.1891 26.4207 18.1891 24.3959C18.1891 22.3712 19.0909 20.4293 20.6962 18.9976C22.3014 17.5659 24.4786 16.7615 26.7488 16.7615C29.019 16.7615 31.1962 17.5659 32.8015 18.9976C34.4068 20.4293 35.3086 22.3712 35.3086 24.3959C35.3086 26.4207 34.4068 28.3625 32.8015 29.7942C31.1962 31.226 29.019 32.0303 26.7488 32.0303ZM26.7488 35.8475C26.7488 35.8475 33.4199 34.641 35.8279 32.4934C38.2358 30.3458 39.5885 27.4331 39.5885 24.3959C39.5885 21.3588 38.2358 18.446 35.8279 16.2984C33.4199 14.1508 30.1541 12.9443 26.7488 12.9443C23.3435 12.9443 20.0777 14.1508 17.6698 16.2984C15.2619 18.446 13.9092 21.3588 13.9092 24.3959C13.9092 27.4331 15.2619 30.3458 17.6698 32.4934C20.0777 34.641 23.3435 35.8475 26.7488 35.8475Z" fill="#FFFCFC"/>
<path d="M636.809 36.4752C634.473 40.7054 631.308 44.9197 628.071 48.7037C625.001 52.2712 621.718 55.6884 618.236 58.9406C614.755 55.6885 611.472 52.2712 608.401 48.7037C605.165 44.9197 601.999 40.7054 599.663 36.4752C597.3 32.2012 595.945 28.1981 595.945 24.7646C595.945 19.4825 598.294 14.4167 602.474 10.6818C606.654 6.94675 612.324 4.84846 618.236 4.84846C624.148 4.84846 629.818 6.94675 633.998 10.6818C638.179 14.4167 640.527 19.4825 640.527 24.7646C640.527 28.1981 639.167 32.2012 636.809 36.4752ZM618.236 64.5968C618.236 64.5968 644.985 41.9482 644.985 24.7646C644.985 18.4261 642.167 12.3472 637.151 7.86519C632.134 3.38319 625.33 0.865234 618.236 0.865234C611.142 0.865234 604.338 3.38319 599.322 7.86519C594.305 12.3472 591.487 18.4261 591.487 24.7646C591.487 41.9482 618.236 64.5968 618.236 64.5968Z" fill="#FFFCFC"/>
<path d="M618.237 32.8926C615.966 32.8926 613.789 32.0883 612.184 30.6566C610.579 29.2248 609.677 27.283 609.677 25.2582C609.677 23.2335 610.579 21.2916 612.184 19.8599C613.789 18.4282 615.966 17.6238 618.237 17.6238C620.507 17.6238 622.684 18.4282 624.289 19.8599C625.895 21.2916 626.796 23.2335 626.796 25.2582C626.796 27.283 625.895 29.2248 624.289 30.6566C622.684 32.0883 620.507 32.8926 618.237 32.8926ZM618.237 36.7098C618.237 36.7098 624.908 35.5033 627.316 33.3557C629.724 31.2081 631.076 28.2954 631.076 25.2582C631.076 22.2211 629.724 19.3083 627.316 17.1607C624.908 15.0131 621.642 13.8066 618.237 13.8066C614.831 13.8066 611.566 15.0131 609.158 17.1607C606.75 19.3083 605.397 22.2211 605.397 25.2582C605.397 28.2954 606.75 31.2081 609.158 33.3557C611.566 35.5033 614.831 36.7098 618.237 36.7098Z" fill="#FFFCFC"/>
<path d="M75.15 40.691H70.51V50H68.422V29.7H70.51V38.806H75.15L82.023 29.7H84.343L76.803 39.56L84.778 50H82.313L75.15 40.691ZM101.215 34.746V48.144C101.215 50.7347 100.625 52.6487 99.4457 53.886C98.2663 55.1427 96.4877 55.771 94.1097 55.771C92.7757 55.771 91.5093 55.5583 90.3107 55.133C89.1313 54.727 88.1743 54.1567 87.4397 53.422L88.4837 51.856C89.141 52.5133 89.953 53.0257 90.9197 53.393C91.8863 53.7603 92.9207 53.944 94.0227 53.944C95.782 53.944 97.0773 53.4897 97.9087 52.581C98.74 51.6917 99.1557 50.2997 99.1557 48.405V46.636C98.6143 47.5253 97.87 48.2117 96.9227 48.695C95.9947 49.1783 94.941 49.42 93.7617 49.42C91.7703 49.42 90.1947 48.869 89.0347 47.767C87.894 46.6457 87.3237 45.012 87.3237 42.866V34.746H89.3827V42.663C89.3827 44.2677 89.779 45.4857 90.5717 46.317C91.3643 47.1483 92.4953 47.564 93.9647 47.564C95.5693 47.564 96.8357 47.0807 97.7637 46.114C98.6917 45.128 99.1557 43.765 99.1557 42.025V34.746H101.215ZM119.509 34.746V50H117.45V36.573H110.142L109.939 40.343C109.785 43.5137 109.417 45.9497 108.837 47.651C108.257 49.3523 107.223 50.203 105.734 50.203C105.328 50.203 104.835 50.1257 104.255 49.971L104.4 48.202C104.748 48.2793 104.99 48.318 105.125 48.318C105.918 48.318 106.517 47.9507 106.923 47.216C107.329 46.4813 107.6 45.5727 107.735 44.49C107.871 43.4073 107.987 41.9767 108.083 40.198L108.344 34.746H119.509ZM144.387 34.63C146.301 34.63 147.799 35.181 148.882 36.283C149.984 37.385 150.535 39.009 150.535 41.155V50H148.476V41.358C148.476 39.7727 148.089 38.5643 147.316 37.733C146.562 36.9017 145.489 36.486 144.097 36.486C142.511 36.486 141.264 36.979 140.356 37.965C139.447 38.9317 138.993 40.2753 138.993 41.996V50H136.934V41.358C136.934 39.7727 136.547 38.5643 135.774 37.733C135.02 36.9017 133.937 36.486 132.526 36.486C130.96 36.486 129.713 36.979 128.785 37.965C127.876 38.9317 127.422 40.2753 127.422 41.996V50H125.363V34.746H127.335V37.53C127.876 36.602 128.63 35.8867 129.597 35.384C130.563 34.8813 131.675 34.63 132.932 34.63C134.208 34.63 135.31 34.9007 136.238 35.442C137.185 35.9833 137.891 36.7857 138.355 37.849C138.915 36.8437 139.718 36.0607 140.762 35.5C141.825 34.92 143.033 34.63 144.387 34.63ZM169.782 34.746V50H167.81V46.984C167.192 48.0087 166.37 48.7917 165.345 49.333C164.34 49.8743 163.199 50.145 161.923 50.145C160.493 50.145 159.197 49.8163 158.037 49.159C156.877 48.5017 155.969 47.5833 155.311 46.404C154.654 45.2247 154.325 43.881 154.325 42.373C154.325 40.865 154.654 39.5213 155.311 38.342C155.969 37.1627 156.877 36.254 158.037 35.616C159.197 34.9587 160.493 34.63 161.923 34.63C163.161 34.63 164.272 34.891 165.258 35.413C166.264 35.9157 167.085 36.66 167.723 37.646V34.746H169.782ZM162.097 48.318C163.161 48.318 164.118 48.0763 164.968 47.593C165.838 47.0903 166.515 46.3847 166.998 45.476C167.501 44.5673 167.752 43.533 167.752 42.373C167.752 41.213 167.501 40.1787 166.998 39.27C166.515 38.3613 165.838 37.6653 164.968 37.182C164.118 36.6793 163.161 36.428 162.097 36.428C161.015 36.428 160.038 36.6793 159.168 37.182C158.318 37.6653 157.641 38.3613 157.138 39.27C156.655 40.1787 156.413 41.213 156.413 42.373C156.413 43.533 156.655 44.5673 157.138 45.476C157.641 46.3847 158.318 47.0903 159.168 47.593C160.038 48.0763 161.015 48.318 162.097 48.318ZM182.042 48.318C182.989 48.318 183.859 48.1537 184.652 47.825C185.464 47.477 186.15 46.9743 186.711 46.317L187.871 47.651C187.194 48.463 186.353 49.0817 185.348 49.507C184.342 49.9323 183.231 50.145 182.013 50.145C180.447 50.145 179.055 49.8163 177.837 49.159C176.619 48.4823 175.671 47.5543 174.995 46.375C174.318 45.1957 173.98 43.8617 173.98 42.373C173.98 40.8843 174.299 39.5503 174.937 38.371C175.594 37.1917 176.493 36.2733 177.634 35.616C178.774 34.9587 180.07 34.63 181.52 34.63C182.873 34.63 184.091 34.9393 185.174 35.558C186.276 36.1767 187.146 37.037 187.784 38.139C188.441 39.241 188.789 40.4977 188.828 41.909L176.3 44.345C176.686 45.5823 177.382 46.5587 178.388 47.274C179.412 47.97 180.63 48.318 182.042 48.318ZM181.52 36.399C180.456 36.399 179.499 36.6503 178.649 37.153C177.817 37.6363 177.16 38.3227 176.677 39.212C176.213 40.082 175.981 41.0873 175.981 42.228C175.981 42.518 175.99 42.7307 176.01 42.866L186.769 40.778C186.537 39.502 185.947 38.458 185 37.646C184.052 36.8147 182.892 36.399 181.52 36.399ZM202.791 42.112C204.86 42.5953 205.894 43.8423 205.894 45.853C205.894 47.187 205.401 48.2117 204.415 48.927C203.429 49.6423 201.96 50 200.007 50H193.076V34.746H199.804C201.544 34.746 202.907 35.0843 203.893 35.761C204.879 36.4377 205.372 37.4043 205.372 38.661C205.372 39.4923 205.14 40.2077 204.676 40.807C204.232 41.387 203.603 41.822 202.791 42.112ZM195.077 41.532H199.659C200.839 41.532 201.738 41.3097 202.356 40.865C202.994 40.4203 203.313 39.7727 203.313 38.922C203.313 38.0713 202.994 37.4333 202.356 37.008C201.738 36.5827 200.839 36.37 199.659 36.37H195.077V41.532ZM199.92 48.376C201.235 48.376 202.221 48.1633 202.878 47.738C203.536 47.3127 203.864 46.6457 203.864 45.737C203.864 44.8283 203.565 44.1613 202.965 43.736C202.366 43.2913 201.419 43.069 200.123 43.069H195.077V48.376H199.92ZM217.013 50.145C215.544 50.145 214.219 49.8163 213.04 49.159C211.861 48.4823 210.933 47.5543 210.256 46.375C209.579 45.1957 209.241 43.8617 209.241 42.373C209.241 40.8843 209.579 39.5503 210.256 38.371C210.933 37.1917 211.861 36.2733 213.04 35.616C214.219 34.9587 215.544 34.63 217.013 34.63C218.482 34.63 219.807 34.9587 220.986 35.616C222.165 36.2733 223.084 37.1917 223.741 38.371C224.418 39.5503 224.756 40.8843 224.756 42.373C224.756 43.8617 224.418 45.1957 223.741 46.375C223.084 47.5543 222.165 48.4823 220.986 49.159C219.807 49.8163 218.482 50.145 217.013 50.145ZM217.013 48.318C218.096 48.318 219.062 48.0763 219.913 47.593C220.783 47.0903 221.46 46.3847 221.943 45.476C222.426 44.5673 222.668 43.533 222.668 42.373C222.668 41.213 222.426 40.1787 221.943 39.27C221.46 38.3613 220.783 37.6653 219.913 37.182C219.062 36.6793 218.096 36.428 217.013 36.428C215.93 36.428 214.954 36.6793 214.084 37.182C213.233 37.6653 212.557 38.3613 212.054 39.27C211.571 40.1787 211.329 41.213 211.329 42.373C211.329 43.533 211.571 44.5673 212.054 45.476C212.557 46.3847 213.233 47.0903 214.084 47.593C214.954 48.0763 215.93 48.318 217.013 48.318Z" fill="white"/>
<path d="M68.6367 57.0762H195.816" stroke="#FFF9F9" stroke-width="2"/>
<path d="M341.064 35.6557C338.728 39.7885 335.563 43.9058 332.326 47.6027C329.256 51.0881 325.973 54.4267 322.492 57.604C319.01 54.4267 315.728 51.0881 312.657 47.6027C309.421 43.9058 306.256 39.7885 303.92 35.6557C301.557 31.48 300.202 27.569 300.202 24.2145C300.202 19.054 302.55 14.1049 306.73 10.4558C310.911 6.80679 316.58 4.75678 322.492 4.75678C328.403 4.75678 334.073 6.80679 338.253 10.4558C342.433 14.1049 344.782 19.054 344.782 24.2145C344.782 27.569 343.422 31.48 341.064 35.6557ZM322.492 63.13C322.492 63.13 349.24 41.0027 349.24 24.2145C349.24 18.0219 346.422 12.0829 341.406 7.70408C336.389 3.32524 329.586 0.865234 322.492 0.865234C315.398 0.865234 308.594 3.32524 303.578 7.70408C298.562 12.0829 295.744 18.0219 295.744 24.2145C295.744 41.0027 322.492 63.13 322.492 63.13Z" fill="#FFFCFC"/>
<path d="M322.492 31.8533C320.261 31.8533 318.121 31.0941 316.544 29.7426C314.966 28.3911 314.08 26.5581 314.08 24.6468C314.08 22.7355 314.966 20.9024 316.544 19.551C318.121 18.1995 320.261 17.4402 322.492 17.4402C324.722 17.4402 326.862 18.1995 328.439 19.551C330.017 20.9024 330.903 22.7355 330.903 24.6468C330.903 26.5581 330.017 28.3911 328.439 29.7426C326.862 31.0941 324.722 31.8533 322.492 31.8533ZM322.492 35.4566C322.492 35.4566 329.047 34.3177 331.413 32.2905C333.779 30.2633 335.109 27.5137 335.109 24.6468C335.109 21.7798 333.779 19.0303 331.413 17.003C329.047 14.9758 325.838 13.8369 322.492 13.8369C319.145 13.8369 315.936 14.9758 313.57 17.003C311.204 19.0303 309.875 21.7798 309.875 24.6468C309.875 27.5137 311.204 30.2633 313.57 32.2905C315.936 34.3177 319.145 35.4566 322.492 35.4566Z" fill="#FFFCFC"/>
<path d="M372.774 27.526C375.307 27.526 377.308 28.28 378.777 29.788C380.246 31.296 380.981 33.4517 380.981 36.255V48H378.835V36.052C378.835 33.8673 378.303 32.224 377.24 31.122C376.177 30.0007 374.688 29.44 372.774 29.44C370.841 29.44 369.333 30.0007 368.25 31.122C367.187 32.224 366.655 33.8673 366.655 36.052V48H362.073V46.144H364.509V36.255C364.509 33.4517 365.253 31.296 366.742 29.788C368.231 28.28 370.241 27.526 372.774 27.526ZM393.076 48.145C391.607 48.145 390.283 47.8163 389.103 47.159C387.924 46.4823 386.996 45.5543 386.319 44.375C385.643 43.1957 385.304 41.8617 385.304 40.373C385.304 38.8843 385.643 37.5503 386.319 36.371C386.996 35.1917 387.924 34.2733 389.103 33.616C390.283 32.9587 391.607 32.63 393.076 32.63C394.546 32.63 395.87 32.9587 397.049 33.616C398.229 34.2733 399.147 35.1917 399.804 36.371C400.481 37.5503 400.819 38.8843 400.819 40.373C400.819 41.8617 400.481 43.1957 399.804 44.375C399.147 45.5543 398.229 46.4823 397.049 47.159C395.87 47.8163 394.546 48.145 393.076 48.145ZM393.076 46.318C394.159 46.318 395.126 46.0763 395.976 45.593C396.846 45.0903 397.523 44.3847 398.006 43.476C398.49 42.5673 398.731 41.533 398.731 40.373C398.731 39.213 398.49 38.1787 398.006 37.27C397.523 36.3613 396.846 35.6653 395.976 35.182C395.126 34.6793 394.159 34.428 393.076 34.428C391.994 34.428 391.017 34.6793 390.147 35.182C389.297 35.6653 388.62 36.3613 388.117 37.27C387.634 38.1787 387.392 39.213 387.392 40.373C387.392 41.533 387.634 42.5673 388.117 43.476C388.62 44.3847 389.297 45.0903 390.147 45.593C391.017 46.0763 391.994 46.318 393.076 46.318ZM412.615 33.123C414.026 33.123 415.283 33.442 416.385 34.08C417.506 34.6987 418.376 35.5783 418.995 36.719C419.614 37.8403 419.923 39.126 419.923 40.576C419.923 42.0647 419.594 43.389 418.937 44.549C418.299 45.6897 417.4 46.579 416.24 47.217C415.08 47.855 413.746 48.174 412.238 48.174C409.705 48.174 407.743 47.2847 406.351 45.506C404.959 43.7273 404.263 41.272 404.263 38.14C404.263 34.8727 404.882 32.369 406.119 30.629C407.376 28.889 409.328 27.7097 411.977 27.091L418.821 25.525L419.169 27.41L412.731 28.889C410.546 29.3723 408.942 30.2327 407.917 31.47C406.892 32.688 406.332 34.4957 406.235 36.893C406.854 35.7137 407.714 34.7953 408.816 34.138C409.918 33.4613 411.184 33.123 412.615 33.123ZM412.296 46.463C413.359 46.463 414.307 46.2213 415.138 45.738C415.989 45.2353 416.646 44.5393 417.11 43.65C417.593 42.7607 417.835 41.7553 417.835 40.634C417.835 39.5127 417.603 38.5267 417.139 37.676C416.675 36.8253 416.018 36.168 415.167 35.704C414.336 35.2207 413.379 34.979 412.296 34.979C411.213 34.979 410.247 35.2207 409.396 35.704C408.565 36.168 407.907 36.8253 407.424 37.676C406.96 38.5267 406.728 39.5127 406.728 40.634C406.728 41.7553 406.96 42.7607 407.424 43.65C407.907 44.5393 408.574 45.2353 409.425 45.738C410.276 46.2213 411.233 46.463 412.296 46.463ZM438.198 32.746V48H436.226V44.984C435.608 46.0087 434.786 46.7917 433.761 47.333C432.756 47.8743 431.615 48.145 430.339 48.145C428.909 48.145 427.613 47.8163 426.453 47.159C425.293 46.5017 424.385 45.5833 423.727 44.404C423.07 43.2247 422.741 41.881 422.741 40.373C422.741 38.865 423.07 37.5213 423.727 36.342C424.385 35.1627 425.293 34.254 426.453 33.616C427.613 32.9587 428.909 32.63 430.339 32.63C431.577 32.63 432.688 32.891 433.674 33.413C434.68 33.9157 435.501 34.66 436.139 35.646V32.746H438.198ZM430.513 46.318C431.577 46.318 432.534 46.0763 433.384 45.593C434.254 45.0903 434.931 44.3847 435.414 43.476C435.917 42.5673 436.168 41.533 436.168 40.373C436.168 39.213 435.917 38.1787 435.414 37.27C434.931 36.3613 434.254 35.6653 433.384 35.182C432.534 34.6793 431.577 34.428 430.513 34.428C429.431 34.428 428.454 34.6793 427.584 35.182C426.734 35.6653 426.057 36.3613 425.554 37.27C425.071 38.1787 424.829 39.213 424.829 40.373C424.829 41.533 425.071 42.5673 425.554 43.476C426.057 44.3847 426.734 45.0903 427.584 45.593C428.454 46.0763 429.431 46.318 430.513 46.318ZM443.991 32.746H446.05V39.503H455.649V32.746H457.708V48H455.649V41.272H446.05V48H443.991V32.746ZM469.853 48.145C468.384 48.145 467.059 47.8163 465.88 47.159C464.701 46.4823 463.773 45.5543 463.096 44.375C462.419 43.1957 462.081 41.8617 462.081 40.373C462.081 38.8843 462.419 37.5503 463.096 36.371C463.773 35.1917 464.701 34.2733 465.88 33.616C467.059 32.9587 468.384 32.63 469.853 32.63C471.322 32.63 472.647 32.9587 473.826 33.616C475.005 34.2733 475.924 35.1917 476.581 36.371C477.258 37.5503 477.596 38.8843 477.596 40.373C477.596 41.8617 477.258 43.1957 476.581 44.375C475.924 45.5543 475.005 46.4823 473.826 47.159C472.647 47.8163 471.322 48.145 469.853 48.145ZM469.853 46.318C470.936 46.318 471.902 46.0763 472.753 45.593C473.623 45.0903 474.3 44.3847 474.783 43.476C475.266 42.5673 475.508 41.533 475.508 40.373C475.508 39.213 475.266 38.1787 474.783 37.27C474.3 36.3613 473.623 35.6653 472.753 35.182C471.902 34.6793 470.936 34.428 469.853 34.428C468.77 34.428 467.794 34.6793 466.924 35.182C466.073 35.6653 465.397 36.3613 464.894 37.27C464.411 38.1787 464.169 39.213 464.169 40.373C464.169 41.533 464.411 42.5673 464.894 43.476C465.397 44.3847 466.073 45.0903 466.924 45.593C467.794 46.0763 468.77 46.318 469.853 46.318ZM491.711 40.112C493.78 40.5953 494.814 41.8423 494.814 43.853C494.814 45.187 494.321 46.2117 493.335 46.927C492.349 47.6423 490.88 48 488.927 48H481.996V32.746H488.724C490.464 32.746 491.827 33.0843 492.813 33.761C493.799 34.4377 494.292 35.4043 494.292 36.661C494.292 37.4923 494.06 38.2077 493.596 38.807C493.152 39.387 492.523 39.822 491.711 40.112ZM483.997 39.532H488.579C489.759 39.532 490.658 39.3097 491.276 38.865C491.914 38.4203 492.233 37.7727 492.233 36.922C492.233 36.0713 491.914 35.4333 491.276 35.008C490.658 34.5827 489.759 34.37 488.579 34.37H483.997V39.532ZM488.84 46.376C490.155 46.376 491.141 46.1633 491.798 45.738C492.456 45.3127 492.784 44.6457 492.784 43.737C492.784 42.8283 492.485 42.1613 491.885 41.736C491.286 41.2913 490.339 41.069 489.043 41.069H483.997V46.376H488.84ZM505.933 48.145C504.464 48.145 503.139 47.8163 501.96 47.159C500.781 46.4823 499.853 45.5543 499.176 44.375C498.499 43.1957 498.161 41.8617 498.161 40.373C498.161 38.8843 498.499 37.5503 499.176 36.371C499.853 35.1917 500.781 34.2733 501.96 33.616C503.139 32.9587 504.464 32.63 505.933 32.63C507.402 32.63 508.727 32.9587 509.906 33.616C511.085 34.2733 512.004 35.1917 512.661 36.371C513.338 37.5503 513.676 38.8843 513.676 40.373C513.676 41.8617 513.338 43.1957 512.661 44.375C512.004 45.5543 511.085 46.4823 509.906 47.159C508.727 47.8163 507.402 48.145 505.933 48.145ZM505.933 46.318C507.016 46.318 507.982 46.0763 508.833 45.593C509.703 45.0903 510.38 44.3847 510.863 43.476C511.346 42.5673 511.588 41.533 511.588 40.373C511.588 39.213 511.346 38.1787 510.863 37.27C510.38 36.3613 509.703 35.6653 508.833 35.182C507.982 34.6793 507.016 34.428 505.933 34.428C504.85 34.428 503.874 34.6793 503.004 35.182C502.153 35.6653 501.477 36.3613 500.974 37.27C500.491 38.1787 500.249 39.213 500.249 40.373C500.249 41.533 500.491 42.5673 500.974 43.476C501.477 44.3847 502.153 45.0903 503.004 45.593C503.874 46.0763 504.85 46.318 505.933 46.318Z" fill="white"/>
<path d="M362.361 56.2109H491.828" stroke="#FFF9F9" stroke-width="2"/>
<path d="M674.923 38.691H670.718V48H668.63V38.691H664.396L658.19 48H655.696L662.656 37.531L656.218 27.7H658.538L664.367 36.806H668.63V27.7H670.718V36.806H674.923L680.781 27.7H683.101L676.663 37.531L683.623 48H681.129L674.923 38.691ZM692.83 46.318C693.777 46.318 694.647 46.1537 695.44 45.825C696.252 45.477 696.938 44.9743 697.499 44.317L698.659 45.651C697.982 46.463 697.141 47.0817 696.136 47.507C695.13 47.9323 694.019 48.145 692.801 48.145C691.235 48.145 689.843 47.8163 688.625 47.159C687.407 46.4823 686.459 45.5543 685.783 44.375C685.106 43.1957 684.768 41.8617 684.768 40.373C684.768 38.8843 685.087 37.5503 685.725 36.371C686.382 35.1917 687.281 34.2733 688.422 33.616C689.562 32.9587 690.858 32.63 692.308 32.63C693.661 32.63 694.879 32.9393 695.962 33.558C697.064 34.1767 697.934 35.037 698.572 36.139C699.229 37.241 699.577 38.4977 699.616 39.909L687.088 42.345C687.474 43.5823 688.17 44.5587 689.176 45.274C690.2 45.97 691.418 46.318 692.83 46.318ZM692.308 34.399C691.244 34.399 690.287 34.6503 689.437 35.153C688.605 35.6363 687.948 36.3227 687.465 37.212C687.001 38.082 686.769 39.0873 686.769 40.228C686.769 40.518 686.778 40.7307 686.798 40.866L697.557 38.778C697.325 37.502 696.735 36.458 695.788 35.646C694.84 34.8147 693.68 34.399 692.308 34.399ZM711.26 33.123C712.671 33.123 713.928 33.442 715.03 34.08C716.151 34.6987 717.021 35.5783 717.64 36.719C718.258 37.8403 718.568 39.126 718.568 40.576C718.568 42.0647 718.239 43.389 717.582 44.549C716.944 45.6897 716.045 46.579 714.885 47.217C713.725 47.855 712.391 48.174 710.883 48.174C708.35 48.174 706.388 47.2847 704.996 45.506C703.604 43.7273 702.908 41.272 702.908 38.14C702.908 34.8727 703.526 32.369 704.764 30.629C706.02 28.889 707.973 27.7097 710.622 27.091L717.466 25.525L717.814 27.41L711.376 28.889C709.191 29.3723 707.586 30.2327 706.562 31.47C705.537 32.688 704.976 34.4957 704.88 36.893C705.498 35.7137 706.359 34.7953 707.461 34.138C708.563 33.4613 709.829 33.123 711.26 33.123ZM710.941 46.463C712.004 46.463 712.951 46.2213 713.783 45.738C714.633 45.2353 715.291 44.5393 715.755 43.65C716.238 42.7607 716.48 41.7553 716.48 40.634C716.48 39.5127 716.248 38.5267 715.784 37.676C715.32 36.8253 714.662 36.168 713.812 35.704C712.98 35.2207 712.023 34.979 710.941 34.979C709.858 34.979 708.891 35.2207 708.041 35.704C707.209 36.168 706.552 36.8253 706.069 37.676C705.605 38.5267 705.373 39.5127 705.373 40.634C705.373 41.7553 705.605 42.7607 706.069 43.65C706.552 44.5393 707.219 45.2353 708.07 45.738C708.92 46.2213 709.877 46.463 710.941 46.463ZM729.999 32.63C731.487 32.63 732.812 32.9587 733.972 33.616C735.132 34.2733 736.031 35.1917 736.669 36.371C737.326 37.5503 737.655 38.894 737.655 40.402C737.655 41.91 737.336 43.2537 736.698 44.433C736.06 45.593 735.17 46.5017 734.03 47.159C732.908 47.8163 731.623 48.145 730.173 48.145C728.897 48.145 727.756 47.8937 726.751 47.391C725.765 46.869 724.962 46.1247 724.344 45.158V53.626H722.285V40.431C722.285 38.9037 722.604 37.5503 723.242 36.371C723.899 35.1917 724.808 34.2733 725.968 33.616C727.147 32.9587 728.491 32.63 729.999 32.63ZM729.941 46.347C731.023 46.347 732 46.0957 732.87 45.593C733.74 45.0903 734.416 44.3847 734.9 43.476C735.383 42.5673 735.625 41.5427 735.625 40.402C735.625 39.2613 735.383 38.2367 734.9 37.328C734.416 36.4193 733.74 35.7137 732.87 35.211C732 34.689 731.023 34.428 729.941 34.428C728.858 34.428 727.882 34.6793 727.012 35.182C726.161 35.6847 725.494 36.3903 725.011 37.299C724.547 38.1883 724.315 39.213 724.315 40.373C724.315 41.533 724.547 42.5673 725.011 43.476C725.494 44.3847 726.161 45.0903 727.012 45.593C727.882 46.0957 728.858 46.347 729.941 46.347ZM748.564 46.318C749.511 46.318 750.381 46.1537 751.174 45.825C751.986 45.477 752.672 44.9743 753.233 44.317L754.393 45.651C753.716 46.463 752.875 47.0817 751.87 47.507C750.865 47.9323 749.753 48.145 748.535 48.145C746.969 48.145 745.577 47.8163 744.359 47.159C743.141 46.4823 742.194 45.5543 741.517 44.375C740.84 43.1957 740.502 41.8617 740.502 40.373C740.502 38.8843 740.821 37.5503 741.459 36.371C742.116 35.1917 743.015 34.2733 744.156 33.616C745.297 32.9587 746.592 32.63 748.042 32.63C749.395 32.63 750.613 32.9393 751.696 33.558C752.798 34.1767 753.668 35.037 754.306 36.139C754.963 37.241 755.311 38.4977 755.35 39.909L742.822 42.345C743.209 43.5823 743.905 44.5587 744.91 45.274C745.935 45.97 747.153 46.318 748.564 46.318ZM748.042 34.399C746.979 34.399 746.022 34.6503 745.171 35.153C744.34 35.6363 743.682 36.3227 743.199 37.212C742.735 38.082 742.503 39.0873 742.503 40.228C742.503 40.518 742.513 40.7307 742.532 40.866L753.291 38.778C753.059 37.502 752.469 36.458 751.522 35.646C750.575 34.8147 749.415 34.399 748.042 34.399ZM773.026 32.746V48H771.054V45.216C770.513 46.144 769.768 46.869 768.821 47.391C767.874 47.8937 766.791 48.145 765.573 48.145C763.562 48.145 761.977 47.594 760.817 46.492C759.676 45.3707 759.106 43.737 759.106 41.591V32.746H761.165V41.388C761.165 42.9927 761.561 44.2107 762.354 45.042C763.147 45.8733 764.287 46.289 765.776 46.289C767.381 46.289 768.647 45.8057 769.575 44.839C770.503 43.853 770.967 42.49 770.967 40.75V32.746H773.026Z" fill="white"/>
<g filter="url(#filter0_d_18_48)">
<path d="M27.2441 67H768.134" stroke="white" stroke-width="3" stroke-dasharray="24 24"/>
</g>
<defs>
<filter id="filter0_d_18_48" x="23.2441" y="65.5" width="748.89" height="11" filterUnits="userSpaceOnUse" color-interpolation-filters="sRGB">
<feFlood flood-opacity="0" result="BackgroundImageFix"/>
<feColorMatrix in="SourceAlpha" type="matrix" values="0 0 0 0 0 0 0 0 0 0 0 0 0 0 0 0 0 0 127 0" result="hardAlpha"/>
<feOffset dy="4"/>
<feGaussianBlur stdDeviation="2"/>
<feComposite in2="hardAlpha" operator="out"/>
<feColorMatrix type="matrix" values="0 0 0 0 0 0 0 0 0 0 0 0 0 0 0 0 0 0 0.25 0"/>
<feBlend mode="normal" in2="BackgroundImageFix" result="effect1_dropShadow_18_48"/>
<feBlend mode="normal" in="SourceGraphic" in2="effect1_dropShadow_18_48" result="shape"/>
</filter>
</defs>
</svg>
